<?xml version="1.0" encoding="utf-8"?>
<!DOCTYPE svg PUBLIC "-//W3C//DTD SVG 1.0//EN" "http://www.w3.org/TR/2001/REC-SVG-20010904/DTD/svg10.dtd">
<svg version="1.0" xmlns="http://www.w3.org/2000/svg" width="1000px" height="1000px" viewBox="0 0 1000 1000" preserveAspectRatio="xMidYMid meet">
   <defs>
      <linearGradient id="lg0" gradientUnits="userSpaceOnUse" x1="50.0%" y1="14.75%" x2="50.0%" y2="85.05%">
         <stop offset="0%" style="stop-color:rgb(0,0,0);"></stop>
         <stop offset="1%" style="stop-color:rgb(19,123,9);"></stop>
         <stop offset="100%" style="stop-color:rgb(137,194,62);"></stop>
      </linearGradient>
   </defs>
 <g fill="#1a7f0c">
  <path fill="url(#lg0)" d="M 269.80 267.60 l -35.40 -0.10 4.15 -4.60 c 14.35 -15.80 32.65 -32.40 50.20 -45.55 77.45 -58 174.60 -81.45 270.50 -65.30 77.40 13.05 147.85 51.60 201.65 110.35 l 4.70 5.10 -27.30 0.10 -27.25 0.15 -1.40 -1.15 c -4.05 -3.35 -17.85 -13.55 -23 -17 -8.95 -6 -19.95 -12.45 -29.65 -17.50 -15.25 -7.85 -49.55 -24 -54.50 -25.60 -65.75 -21.50 -137.15 -20.40 -202.25 3.10 -21.30 7.70 -45.30 19.75 -64 32.20 -6.10 4.05 -13.45 10.05 -24 19.60 l -7 6.35 -35.45 -0.15 z "/>
  <path d="M 392.30 264.90 c -0.50 -5.15 -0.65 -10.15 -0.35 -11.05 0.30 -0.80 0.65 -0.55 2.45 1.60 2.25 2.65 8.25 6.90 13.50 9.50 1.70 0.85 3.10 1.80 3.10 2.05 0 0.30 -3.50 0.50 -9.20 0.50 l -9.25 0 -0.25 -2.60 z "/>
 </g>
 <g fill="#328d17">
  <path fill="url(#lg0)" d="M 419.85 392.15 c -1.85 -3.65 -7.45 -18.10 -9.75 -25.15 -8.45 -25.75 -15.50 -64.40 -17.40 -95.40 l -0.35 -5.60 8.75 0 8.80 0 5.30 2.30 c 2.90 1.25 7.15 2.70 9.45 3.25 2.25 0.50 7.05 1.60 10.60 2.45 28.10 6.55 50.50 17.60 67.70 33.40 20.60 18.90 32.85 47.10 33.90 78.20 l 0.30 8.35 -13.20 0.15 c -8.40 0.10 -13.35 -0.05 -13.60 -0.35 -0.20 -0.25 -1.75 -2.95 -3.40 -6 -8.65 -15.65 -19.50 -29.05 -28.90 -35.65 -2.05 -1.45 -3.90 -2.60 -4.20 -2.60 -0.25 0 1.40 1.95 3.60 4.30 2.25 2.40 5.90 7.05 8.10 10.35 3.65 5.55 11.70 20.80 14.30 27.25 l 1.10 2.60 -39.20 0 c -21.55 0 -39.50 0.15 -39.95 0.30 -0.50 0.20 -1.10 -0.40 -1.95 -2.15 z "/>
  <path fill="url(#lg0)" d="M 163.50 393.55 c 0 -0.70 4.75 -14.40 7.15 -20.55 14.85 -38.35 35.15 -72.05 63.05 -104.60 l 2.05 -2.40 35.40 0 c 19.45 0 35.35 0.15 35.35 0.35 0 0.20 -3.65 4.05 -8.15 8.60 -31.80 32.30 -55.60 68.55 -72.40 110.30 l -3.45 8.50 -29.50 0.15 c -16.60 0.05 -29.50 -0.10 -29.50 -0.35 z "/>
  <path fill="url(#lg0)" d="M 797.75 393.40 c -0.15 -0.35 -0.95 -2.65 -1.80 -5.15 -7.40 -21.35 -19.90 -45.80 -32.95 -64.50 -13.05 -18.75 -29.95 -37.35 -47.15 -51.95 -3.20 -2.75 -5.85 -5.20 -5.85 -5.40 0 -0.20 12.20 -0.40 27.15 -0.40 l 27.15 0 5.70 6.80 c 24.90 29.45 45.25 63.80 59.35 100.20 2.40 6.15 7.15 19.85 7.15 20.55 0 0.25 -8.65 0.45 -19.25 0.45 -15 0 -19.35 -0.15 -19.50 -0.60 z "/>
 </g>
 <g fill="#479a20">
  <path fill="url(#lg0)" d="M 369.05 517.40 c -2.30 -8.35 -3.90 -15.80 -5 -23.45 -1.65 -11.10 -6.40 -22.75 -11.50 -28.15 l -2.80 -2.95 5.75 0.35 c 3.15 0.20 9.80 0.80 14.75 1.35 64.45 7 109.75 26.80 125 54.60 l 1.85 3.35 -62.20 0 c -34.15 0 -62.65 0.15 -63.20 0.30 -1 0.25 -1.20 -0.20 -2.65 -5.40 z "/>
  <path fill="url(#lg0)" d="M 627.40 522.65 c -15.10 -0.10 -27.40 -0.35 -27.40 -0.55 0.05 -0.20 1.30 -1.35 2.80 -2.60 4.25 -3.45 11.70 -11.30 15.15 -15.95 3.10 -4.25 7.30 -12.10 6.95 -13.10 -0.10 -0.30 -1.05 0.75 -2.10 2.35 -4.60 6.95 -17.20 17.45 -31.15 26.05 l -5.90 3.65 -20.10 0 -20.10 0 -0.50 -2.60 c -2.70 -13.30 -1.15 -25.90 4.70 -37.80 6.80 -13.80 20.10 -26.90 38 -37.60 20.55 -12.20 45 -21.70 76 -29.45 8.65 -2.15 24.70 -5.55 26.30 -5.55 0.80 0 0.60 0.45 -1.25 2.95 -2.50 3.45 -4.30 8 -6.10 15.80 -1.10 4.60 -1.35 7.35 -1.70 17 -1.05 29.95 -5.90 48.80 -16.90 65.75 -2.35 3.70 -9.05 12.20 -9.25 11.90 -0.05 -0.10 -12.40 -0.20 -27.45 -0.25 z "/>
  <path fill="url(#lg0)" d="M 147.35 514.65 c -1.60 -38.25 2.95 -75.85 13.75 -113.30 l 2.55 -8.85 29.75 0 c 28.10 0 29.70 0.05 29.35 0.90 -0.20 0.45 -1.60 4.45 -3.10 8.85 -11.75 34.50 -17.75 72.70 -17.05 108.90 l 0.20 11.35 -27.55 0 -27.60 0 -0.30 -7.85 z "/>
  <path fill="url(#lg0)" d="M 519.50 519.90 c 0 -4.60 -1.50 -23.35 -2.80 -35.40 -1.30 -11.95 -4.40 -34.35 -4.75 -34.75 -0.15 -0.10 -1.25 0.05 -2.45 0.40 -1.40 0.35 -6.55 0.55 -13.75 0.55 -11.25 0 -11.60 -0.05 -17.35 -1.55 -19.65 -5.25 -35.40 -17.80 -48.80 -38.90 -3.90 -6.20 -9.10 -15.90 -9.10 -17 0 -0.65 4.95 -0.75 39.95 -0.75 l 39.95 0 3.55 8.85 c 12.35 31.30 22.90 71.65 29.35 112.65 0.65 4.25 1.20 7.90 1.20 8.15 0 0.20 -3.35 0.35 -7.50 0.35 l -7.50 0 0 -2.60 z "/>
  <path fill="url(#lg0)" d="M 812 522.25 c 0 -0.15 0.35 -3.90 0.80 -8.35 1.20 -11.45 1.20 -36.60 0 -48.40 -2.20 -22.60 -6.55 -44.75 -12.55 -64.25 -1.20 -3.85 -2.35 -7.40 -2.50 -7.85 -0.35 -0.85 0.80 -0.90 19.10 -0.90 l 19.50 0 2.55 8.90 c 10.80 37.40 15.35 75 13.75 113.25 l -0.30 7.85 -20.20 0 c -11.05 0 -20.15 -0.10 -20.15 -0.25 z "/>
  <path fill="url(#lg0)" d="M 528.75 436.85 c -0.40 -0.65 -1.40 -3.10 -2.20 -5.40 -3.05 -8.90 -10.25 -26 -14.35 -34 -1.20 -2.35 -2.20 -4.40 -2.20 -4.60 0 -0.20 6.10 -0.35 13.55 -0.35 l 13.60 0 -0.30 8.35 c -0.35 9.55 -1.70 19.45 -3.95 28.90 -2.05 8.70 -2.55 9.55 -4.15 7.10 z "/>
 </g>
 <g fill="#5da82a">
  <path fill="url(#lg0)" d="M 181.40 652 c -18.05 -38.10 -29.45 -79.60 -32.90 -120.25 -0.30 -3.30 -0.60 -7.05 -0.75 -8.35 l -0.20 -2.40 27.65 0 27.65 0 0.35 5.90 c 1.15 19.75 5.25 44.50 10.85 64.90 5.35 19.55 14.55 43.95 22.80 60.40 0.95 1.85 1.65 3.50 1.55 3.60 -0.10 0.10 -12.55 0.25 -27.60 0.30 l -27.35 0.15 -2.05 -4.25 z "/>
  <path fill="url(#lg0)" d="M 521.10 656.15 l -13.60 -0.15 0.30 -1.40 c 0.15 -0.75 0.60 -2.60 0.95 -4.10 3.25 -13.25 8.35 -46.10 8.85 -56.75 l 0.15 -3 -4 -0.35 c -9.65 -0.85 -22.25 -3.55 -31.75 -6.75 l -5.75 -2 -5.25 0.65 c -6.35 0.80 -21.70 0.90 -27.50 0.20 -30.50 -3.70 -52.15 -18.15 -65.90 -44 -2.60 -4.85 -7.10 -15.50 -7.10 -16.80 0 -0.60 9.30 -0.70 62.95 -0.70 l 62.95 0 1.75 4.15 c 2.75 6.45 4.30 14.10 4.35 20.95 0 8.20 -2.90 22.45 -4.65 22.80 -1.70 0.35 -21.35 -6.65 -33.35 -11.80 -18.80 -8.10 -30.10 -14.80 -37.90 -22.50 -2 -2.05 -3.75 -3.60 -3.90 -3.50 -0.10 0.15 0.90 1.90 2.25 3.95 6.05 9.10 13.35 15.30 31.55 26.70 14.40 9 27.75 14.45 43.50 17.75 4.90 1 18.40 2.75 18.75 2.45 0.55 -0.60 1.35 -30.30 1.15 -44.45 l -0.20 -16.50 7.35 0 7.30 0 0.80 6.15 c 0.45 3.35 1.30 11.05 1.85 17.10 0.60 6.05 1.20 12.05 1.40 13.35 l 0.35 2.40 6.50 -3.55 c 7.05 -3.85 26.30 -15.10 34.75 -20.35 5.65 -3.50 14.10 -9.45 18.40 -12.95 l 2.70 -2.15 27.45 0 c 15.45 0 27.45 0.20 27.45 0.45 0 0.75 -6.85 6.95 -11.45 10.35 -8.30 6.20 -22.60 12.45 -34.85 15.15 -6.40 1.40 -15.40 2.50 -23.20 2.85 -10.50 0.40 -10.15 0.30 -18.05 5 -8.85 5.30 -15.15 8.80 -22.90 12.85 l -6.05 3.15 -0.20 27.25 c -0.15 26.10 -0.40 31.90 -2.05 47.95 -0.95 9.40 -1.15 10.50 -1.90 10.40 -0.35 -0.10 -6.75 -0.20 -14.25 -0.25 z "/>
  <path fill="url(#lg0)" d="M 786.90 656 l -28.90 -0.25 3.90 -4.75 c 8.55 -10.60 15 -20.85 21.35 -33.75 14.45 -29.60 23.70 -59.30 28.05 -90.10 l 0.85 -6.15 20.15 0 20.15 0 -0.20 2.35 c -0.15 1.35 -0.45 5.10 -0.75 8.40 -2.60 30.70 -10 62.95 -21.10 92.50 -4.70 12.45 -13.55 32.40 -14.30 32.15 -0.20 -0.10 -13.35 -0.25 -29.20 -0.40 z "/>
  <path fill="url(#lg0)" d="M 284.35 653.85 c -1.55 -2.65 -3.95 -7.65 -15.15 -31.85 -6.25 -13.45 -8.50 -18.80 -8.05 -19.10 0.95 -0.60 3.95 -1.40 5.45 -1.40 1.75 0 12.45 5.40 16.30 8.20 3.95 2.90 21.05 22.30 37.50 42.45 l 3.15 3.85 -18.95 0 -19 0 -1.25 -2.15 z "/>
  <path fill="url(#lg0)" d="M 551.65 538.90 c -1.50 -2 -6.15 -15 -6.15 -17.25 0 -0.50 4.30 -0.65 20.75 -0.65 11.40 0 20.75 0.15 20.75 0.40 0 0.45 -1.10 1.10 -12 6.95 -7.40 4.05 -21.90 11.15 -22.65 11.15 -0.10 0 -0.45 -0.30 -0.70 -0.60 z "/>
 </g>
 <g fill="#73b534">
  <path fill="url(#lg0)" d="M 259.05 757.85 c -23.20 -21.55 -45.15 -48.70 -61.90 -76.60 -4.90 -8.10 -14.15 -25.25 -14.15 -26.20 0 -0.40 7.40 -0.55 27.45 -0.55 l 27.45 0 3.40 6.35 c 20.15 38.15 45.85 70.45 76.90 96.85 l 5.95 5.05 -10.45 0.10 c -5.75 0.10 -19.10 0.20 -29.65 0.25 l -19.20 0.15 -5.80 -5.40 z "/>
  <path fill="url(#lg0)" d="M 552.75 763.10 l -182 -0.10 -6.65 -5 c -21.85 -16.30 -39.10 -36.15 -58.45 -67.25 -8.55 -13.70 -20.65 -34.80 -20.65 -35.90 0 -0.20 8.40 -0.35 18.70 -0.35 l 18.65 0 10 12.15 c 5.50 6.65 13.40 16.70 17.60 22.25 9.85 13.10 15.25 19.35 21.65 24.90 30.25 26.45 64.05 39.90 107.20 42.75 11.10 0.70 19.30 0.35 26.45 -1.25 3.05 -0.65 7.25 -1.60 9.35 -2.10 2.10 -0.45 3.95 -1.15 4.10 -1.50 0.15 -0.40 0.40 -1.75 0.60 -3.05 l 0.30 -2.40 -5.40 -3.45 c -9.05 -5.80 -12.35 -6.85 -27.70 -8.80 -8.95 -1.10 -30.95 -4.15 -47.75 -6.55 -26.70 -3.80 -40.55 -7.75 -49.45 -14.15 -3.50 -2.50 -9.40 -8.50 -11.65 -11.80 -5.70 -8.40 -8.80 -19.60 -7.90 -28.65 0.45 -5.20 0.75 -5.20 9.25 -0.90 13.25 6.75 26.30 11.20 39.85 13.60 5.40 1 8.15 1.15 17.90 1.15 10.15 0 12.25 -0.15 18 -1.20 5.95 -1.15 7.65 -1.25 20.25 -1.20 15.10 0 19.15 0.40 34.25 3.45 14.85 3 31.25 7.90 52.50 15.75 21.60 7.95 32.95 10.85 49.20 12.50 6.60 0.65 24.90 0.65 31.60 0 33.10 -3.30 65.30 -16.60 92.35 -38.10 3.50 -2.80 10.45 -9.20 15.45 -14.25 l 9.15 -9.15 28.75 0 c 21 0 28.75 0.15 28.75 0.55 0 0.95 -9.25 18.10 -14.15 26.20 -11.85 19.75 -26.05 38.85 -41.80 56.20 -6.05 6.70 -19.35 19.95 -23.45 23.40 l -2.85 2.40 -182 -0.15 z "/>
  <path fill="url(#lg0)" d="M 527.50 677.70 c -4.35 -1.05 -16.25 -3.15 -22.15 -3.95 -2.20 -0.30 -2.40 -0.45 -2.15 -1.40 0.15 -0.60 1.30 -4.80 2.50 -9.35 l 2.15 -8.25 14.15 -0.15 14.15 -0.10 -0.30 3.10 c -0.45 4.85 -2.90 20.60 -3.30 20.95 -0.15 0.15 -2.45 -0.25 -5.05 -0.85 z "/>
 </g>
 <g fill="#81be3b">
  <path fill="url(#lg0)" d="M 481 852.45 c -69.30 -3.70 -135.95 -27.80 -191.50 -69.20 -10.65 -7.95 -25.50 -20.35 -25.50 -21.30 0 -0.25 11.60 -0.45 29.30 -0.45 l 29.30 0 5.30 4.15 c 29.05 22.70 63.25 41 100.15 53.60 31.40 10.70 60.50 16.30 92.30 17.70 8.70 0.40 11.30 0.35 18.40 -0.50 56.70 -6.45 110.40 -27.05 157.35 -60.40 2.95 -2.10 5.40 -3.95 5.40 -4.15 0 -0.20 -2.85 1.40 -6.35 3.55 -56.70 34.65 -122.20 46.75 -196.15 36.25 -44.85 -6.35 -86.60 -21.75 -122.85 -45.30 -3.40 -2.20 -6.15 -4.20 -6.15 -4.45 0 -0.25 75.10 -0.45 183 -0.45 115.35 0 183 0.20 183 0.50 0 1.20 -19.20 16.80 -31.75 25.75 -64.40 46 -143.75 69 -223.25 64.70 z "/>
 </g>
</svg>